<svg xmlns="http://www.w3.org/2000/svg" version="1.1" xmlns:xlink="http://www.w3.org/1999/xlink" xmlns:svgjs="http://svgjs.dev/svgjs" width="100%" height="100%" viewBox="0 0 1000 600"><rect width="1000" height="600" x="0" y="0" fill="#ffffff"/><g><rect width="333.3333333333333" height="333.3333333333333" rx="13.333333333333334" ry="13.333333333333334" y="154.12791171006992" fill="#111141" transform="matrix(0.9476464506215958,0,0,0.9476464506215958,0,-3.999883129045571)" x="131.9056701660156"/><path d="M346.3603989290476 246.00034272796228Q347.08056354186965 245.7945814100131 348.9324154034118 245.7945814100131L348.9324154034118 245.7945814100131Q351.5301520425196 245.7945814100131 353.3820039040618 246.92626865873336Q355.23385576560395 248.03223574270993 355.23385576560395 250.4242110638686L355.23385576560395 250.4242110638686Q355.23385576560395 253.20198885618188 351.9931150079051 255.2596020356732Q348.75237425020634 257.29149505042085 345.0486705271219 258.217420981192L345.0486705271219 258.217420981192Q331.7256251899156 261.92112470427634 319.6885880898915 263.3871740946639L319.6885880898915 263.3871740946639Q316.9108102975781 290.9849108645912 311.0723329007716 319.9715365306752Q305.23385550396495 348.95816219675913 296.5404398206141 381.3655697737474L296.5404398206141 381.3655697737474Q313.95299135205937 380.97976730259285 322.46636588220474 380.05384137182176L322.46636588220474 380.05384137182176Q328.5620449264477 379.5137179122052 328.5620449264477 383.21742163528967L328.5620449264477 383.21742163528967Q328.5620449264477 385.9951994276029 325.4241848277235 389.0558990320962Q322.28632472899926 392.0908784718459 318.7626621591203 392.47668094300053L318.7626621591203 392.47668094300053Q293.01677725073523 395.79458219493034 270.2287112878689 395.79458219493034L270.2287112878689 395.79458219493034Q257.8315918814336 395.79458219493034 245.97459593461494 394.6886151109538L245.97459593461494 394.6886151109538Q241.91080990511958 394.1484916513372 241.91080990511958 392.47668094300053L241.91080990511958 392.47668094300053Q241.91080990511958 390.2390266103037 247.1834436775661 386.921125358374Q252.4560774500126 383.5775039417006 255.05381408912038 383.39746278849515L255.05381408912038 383.39746278849515Q265.80484295196254 382.111454551313 277.27603642762665 381.72565208015845L277.27603642762665 381.72565208015845Q286.17521342892655 347.4663926416279 291.91081016675867 319.61145422426426Q297.64640690459066 291.7307956421568 300.24414354369844 264.87894364979513L300.24414354369844 264.87894364979513Q285.42932865136095 265.2390259562061 274.1381763289023 263.20713294145844L274.1381763289023 263.20713294145844Q270.2287112878689 262.46124816389283 270.2287112878689 260.60939630235066L270.2287112878689 260.60939630235066Q270.2287112878689 258.217420981192 275.32130390710984 255.1567213766986Q280.41389652635087 252.0960217722053 283.1916743186641 251.9159806189998L283.1916743186641 251.9159806189998Q293.58262087509536 250.99005468822872 303.3820036424228 250.81001353502322L303.3820036424228 250.81001353502322L313.5671888809047 250.24416991066312L314.87891728283046 250.24416991066312Q333.75751820466337 249.31824397989203 346.3603989290476 246.00034272796228L346.3603989290476 246.00034272796228Z " fill="#ffffff" transform="matrix(0.9476464506215958,0,0,0.9476464506215958,0,-3.999883129045571)"/><path d="M642.8972124759808 257.1758089147096Q643.5475686817874 256.98999285590776 645.2199132110043 256.98999285590776L645.2199132110043 256.98999285590776Q647.5658409533778 256.98999285590776 649.2381854825946 258.011981179318Q650.9105300118114 259.01074249537805 650.9105300118114 261.17085417894975L650.9105300118114 261.17085417894975Q650.9105300118114 263.679370972775 647.983927085682 265.5375315607937Q645.0573241595526 267.37246514146216 641.712635101119 268.2086374060706L641.712635101119 268.2086374060706Q629.681045293698 271.55332646450415 618.8108058537887 272.8772658834675L618.8108058537887 272.8772658834675Q616.3022890599635 297.79984477026807 611.0297583914604 323.9766820539813Q605.7572277229575 350.1535193376945 597.9064992385785 379.4195485989888L597.9064992385785 379.4195485989888Q613.6311832146866 379.07114348873523 621.3193226476138 378.2349712241269L621.3193226476138 378.2349712241269Q626.8241233896193 377.74720406977195 626.8241233896193 381.09189312820564L626.8241233896193 381.09189312820564Q626.8241233896193 383.6004099220308 623.9904284928908 386.36442379670865Q621.1567335961623 389.1052106640362 617.9746335891803 389.45361577428963L617.9746335891803 389.45361577428963Q594.7243992315965 392.44989972246975 574.1452707192896 392.44989972246975L574.1452707192896 392.44989972246975Q562.949853176477 392.44989972246975 552.2422027880194 391.4511384064097L552.2422027880194 391.4511384064097Q548.5723356266825 390.96337125205486 548.5723356266825 389.45361577428963L548.5723356266825 389.45361577428963Q548.5723356266825 387.43286613481934 553.3338721334803 384.4365821866392Q558.0954086402782 381.4170712311089 560.4413363826518 381.25448217965726L560.4413363826518 381.25448217965726Q570.1502254550494 380.0931318121456 580.5094707332536 379.74472670189203L580.5094707332536 379.74472670189203Q588.5460152764343 348.806352911381 593.7256379155365 323.65150395107804Q598.9052605546385 298.4734279834248 601.2511882970122 274.22443230978104L601.2511882970122 274.22443230978104Q587.8724320632776 274.5496104126843 577.6757758365251 272.71467683201587L577.6757758365251 272.71467683201587Q574.1452707192896 272.04109361885907 574.1452707192896 270.3687490896423L574.1452707192896 270.3687490896423Q574.1452707192896 268.2086374060706 578.7442181746359 265.4446235313927Q583.3431656299821 262.680609656715 585.8516824238073 262.51802060526336L585.8516824238073 262.51802060526336Q595.2353933933017 261.68184834065494 604.0848831937407 261.5192592892033L604.0848831937407 261.5192592892033L613.2827781044331 261.00826512749813L614.467355479295 261.00826512749813Q631.5159788743664 260.1720928628897 642.8972124759808 257.1758089147096L642.8972124759808 257.1758089147096ZM741.7281287512246 262.19284250236007Q745.3979959125614 262.3554315538117 745.3979959125614 264.51554323738344L745.3979959125614 264.51554323738344Q745.3979959125614 267.02406003120865 741.472631670372 270.1364790161399Q737.5472674281825 273.225670993721 734.5277564726522 273.225670993721L734.5277564726522 273.225670993721Q720.1502389228576 273.225670993721 702.5906213660811 274.0618432583294L702.5906213660811 274.0618432583294Q688.3756928677382 331.08414630315275 682.8476651183826 379.74472670189203L682.8476651183826 379.74472670189203Q685.1935928607562 379.90731575334365 686.7962563679223 380.83639604735305Q688.3756928677382 381.76547634136233 688.3756928677382 383.25200481177734L688.3756928677382 383.25200481177734Q688.3756928677382 385.27275445124764 685.3561819122078 387.6186821936213L685.3561819122078 387.6186821936213L678.8526198541424 392.6357157812717Q677.6680424792805 393.79706614878336 674.4162614502478 394.7958274648434Q671.1412534138649 395.79458878090344 668.3075585171364 395.79458878090344L668.3075585171364 395.79458878090344Q663.1279358780342 395.79458878090344 663.6157030323892 391.61372745786144L663.6157030323892 391.61372745786144Q669.468908884648 336.61217405250835 685.0310038093045 275.8967768389979L685.0310038093045 275.8967768389979L684.8684147578529 275.2231936258411Q665.7990417233111 276.89553815505786 649.2381854825946 278.9162877945282L649.2381854825946 278.9162877945282Q646.7296686887694 279.24146589743145 645.2199132110043 278.1497965519705Q643.7333847405893 277.05812720650954 643.895973792041 274.73542647148616L643.895973792041 274.73542647148616Q644.0585628434925 272.3894987291126 646.8225767181704 270.8797432513474Q649.5865905928481 269.36998777358224 652.7454635924798 268.5338155089738L652.7454635924798 268.5338155089738Q668.8185526788415 263.86518703157685 688.5382819191898 262.19284250236007L688.5382819191898 262.19284250236007L689.5370432352498 259.33592059828135Q690.2106264484066 256.98999285590776 694.228898719997 255.2479673046402Q698.2471709915875 253.48271474602248 702.0796272043759 253.48271474602248L702.0796272043759 253.48271474602248Q704.5881439982012 253.48271474602248 706.0282184539157 254.48147606208252Q707.4450659022799 255.5034643854928 706.9340717405747 257.33839796616127L706.9340717405747 257.33839796616127L705.9353104245147 261.17085417894975L713.7860389088936 261.00826512749813Q726.0034447751165 261.00826512749813 741.7281287512246 262.19284250236007L741.7281287512246 262.19284250236007ZM783.5367419816449 319.3777345986351Q816.8210435145296 306.3241564678038 816.8210435145296 294.96614987353956L816.8210435145296 294.96614987353956Q816.8210435145296 288.439360808124 808.6219099198972 285.0017637202894Q800.4227763252647 281.58739363980504 787.0440200915302 278.7304717357263L787.0440200915302 278.7304717357263Q783.8619200845483 278.2427045813714 779.6810587615063 277.05812720650954L779.6810587615063 277.05812720650954L775.0124302841093 275.5715987360946Q769.4844025347537 303.4904615710753 766.3023025277718 324.5573572377371L766.3023025277718 324.5573572377371Q772.3180974314822 323.8837740245804 783.5367419816449 319.3777345986351L783.5367419816449 319.3777345986351ZM817.146221617433 274.0618432583294Q824.8343610503601 276.89553815505786 828.9455413513516 281.4248045883534Q833.0334946449926 285.9308440142987 833.0334946449926 291.2730557048525L833.0334946449926 291.2730557048525Q833.0334946449926 298.98442214513 824.6717719989086 306.8351506295089L824.6717719989086 306.8351506295089Q813.476354456096 317.380211966515 797.8213515020386 324.9754433700413Q782.1895755553314 332.593901780918 766.6507076380252 335.26500762619486L766.6507076380252 335.26500762619486Q765.3035412117116 335.5901857290981 764.6299579985549 335.5901857290981L764.6299579985549 335.5901857290981Q760.4490966755128 363.532275571429 758.4515740433927 386.4341048187593L758.4515740433927 386.4341048187593Q758.1031689331393 389.61620482574136 753.7597185586455 391.9621325681149Q749.4162681841519 394.30806031048854 745.0728178096582 394.30806031048854L745.0728178096582 394.30806031048854Q742.7268900672847 394.30806031048854 741.2171345895194 393.2860719870782Q739.7073791117542 392.28731067101813 739.8931951705562 390.28978803889805L739.8931951705562 390.28978803889805Q742.564301015833 363.532275571429 746.745162338875 334.1036572586831L746.745162338875 334.1036572586831Q738.8712068471459 330.7589682002495 738.8712068471459 322.2114294953636L738.8712068471459 322.2114294953636Q738.8712068471459 318.54156233402665 740.5435513763626 313.68711779782785L740.5435513763626 313.68711779782785Q741.3797236409711 311.5270061142561 744.5618236479531 309.92434260708995Q747.7439236549351 308.3449061072741 751.0886127133687 307.9965009970206L751.0886127133687 307.9965009970206Q753.9223076100972 291.62146081510593 759.2877463080011 268.5338155089738L759.2877463080011 268.5338155089738Q751.0886127133687 262.680609656715 750.415029500212 253.64530379747413L750.415029500212 253.64530379747413Q750.2524404487602 250.64901984929398 754.2707127203507 248.21018407751944Q758.2889849919411 245.79457531309518 762.4698463149831 245.79457531309518L762.4698463149831 245.79457531309518Q768.1372361084401 245.79457531309518 768.323052167242 249.9754366361372L768.323052167242 249.9754366361372Q768.4856412186937 253.64530379747413 771.1567470639704 256.82740380445614L771.1567470639704 256.82740380445614Q771.9929193285789 256.66481475300446 773.6652638577957 256.66481475300446L773.6652638577957 256.66481475300446Q779.0074755483495 256.66481475300446 778.3571193425429 260.3346819143414L778.3571193425429 260.3346819143414L777.8461251808378 262.0070264435582Q782.8631587684882 264.8639483476369 789.3899478339039 266.7917899577063Q795.9167368993195 268.69640456042544 804.92881575121 270.7171541998958L804.92881575121 270.7171541998958Q814.3125267207043 272.8772658834675 817.146221617433 274.0618432583294L817.146221617433 274.0618432583294ZM912.7950378856947 335.4275966776465Q923.3400992227007 344.6254915883389 923.3400992227007 354.3343806607366L923.3400992227007 354.3343806607366Q923.3400992227007 360.6753536673503 918.996648848207 367.0395536813143L918.996648848207 367.0395536813143Q903.5971429750022 389.1052106640362 882.8786524185938 394.30806031048854L882.8786524185938 394.30806031048854Q877.5132137206898 395.6319997294518 870.8238356038227 395.6319997294518L870.8238356038227 395.6319997294518Q855.0991516277146 395.6319997294518 840.7216340779199 387.7812712450729L840.7216340779199 387.7812712450729Q833.869666909601 384.08817707638576 831.1985610643242 378.2349712241269Q828.5274552190473 372.38176537186797 828.5274552190473 364.36844783603743L828.5274552190473 364.36844783603743Q828.5274552190473 358.6778310352302 829.8513946380107 347.9701806467726L829.8513946380107 347.9701806467726Q830.3623887997159 345.1364857500441 834.5432501227579 345.1364857500441L834.5432501227579 345.1364857500441Q839.2118786001548 345.1364857500441 844.0663231363536 348.1327696982242Q848.9207676725524 351.15228065375453 848.4097735108472 354.82214781509145L848.4097735108472 354.82214781509145Q848.2471844593957 356.16931424140506 847.5736012462388 360.76826169675127Q846.9232450404323 365.3672091520975 846.9232450404323 369.22289237223623L846.9232450404323 369.22289237223623Q846.9232450404323 377.9097931212236 851.1041063634744 380.929304076754L851.1041063634744 380.929304076754Q855.2849676865163 383.92558802493414 861.9743458033837 383.92558802493414L861.9743458033837 383.92558802493414Q868.663723920251 383.92558802493414 875.8408691914731 381.09189312820564L875.8408691914731 381.09189312820564Q881.3688969408287 378.9085544372836 888.1279560797467 373.8915208496332Q894.9102422260148 368.8744872619828 899.6717787328126 362.53351425536897Q904.4333152396106 356.16931424140506 904.4333152396106 350.1535193376945L904.4333152396106 350.1535193376945Q904.4333152396106 345.2990748014957 901.0886261811769 341.2808025299053L901.0886261811769 341.2808025299053Q897.7439371227433 337.4483463171168 891.6584611969821 333.91784119988125Q885.5497582638707 330.41056308999606 875.5156910885697 325.7419346125991L875.5156910885697 325.7419346125991Q863.1356961708954 319.88872876034026 855.7030538188206 315.45237035644556Q848.2471844593957 311.01601195255097 842.904972768842 304.90730901943954Q837.539534070938 298.7986060863281 837.539534070938 291.1104666534008L837.539534070938 291.1104666534008Q837.539534070938 287.60318854351556 838.3757063355464 284.9320826982387L838.3757063355464 284.9320826982387Q842.3939786071368 269.88098193528737 858.2115706126459 263.2612848404708Q874.0059356108046 256.66481475300446 892.4017254321897 256.66481475300446L892.4017254321897 256.66481475300446Q900.4382699753704 256.66481475300446 906.4540648790809 257.6635760690645Q912.4698597827913 258.66233738512454 916.4881320543817 262.0070264435582L916.4881320543817 262.0070264435582Q920.994171480327 265.7001206122453 920.994171480327 272.3894987291126L920.994171480327 272.3894987291126Q920.994171480327 276.40777100070295 919.7399130834145 280.33313524289247Q918.4856546865018 284.2584994850819 915.9771378926766 290.9478776019492L915.9771378926766 290.9478776019492Q914.1422043120082 295.4539170278945 913.8170262091049 296.47590535130473L913.8170262091049 296.47590535130473Q912.7950378856947 299.30960024803323 908.2889984597493 299.30960024803323L908.2889984597493 299.30960024803323Q903.782959033804 299.30960024803323 899.41628165196 296.801083454208Q895.0728312774664 294.2925666603828 895.0728312774664 291.1104666534008L895.0728312774664 291.1104666534008Q895.0728312774664 290.27429438879244 895.2354203289182 289.78652723443753L895.2354203289182 289.78652723443753L897.7439371227433 282.5861549558651Q899.41628165196 277.8942994711179 900.089864865117 275.5715987360946L900.089864865117 275.5715987360946L901.2744422399788 268.5338155089738L901.2744422399788 268.5338155089738Q880.1843195659668 268.2086374060706 867.6417355968407 277.05812720650954L867.6417355968407 277.05812720650954Q862.6247020091902 280.40281626494317 859.8839151418628 284.83917466883776Q857.1199012671849 289.2755330727324 857.1199012671849 293.7815724986777L857.1199012671849 293.7815724986777Q857.1199012671849 301.6555279904069 864.9706297515637 307.34614479121404L864.9706297515637 307.34614479121404Q870.661246552371 311.34119005545426 877.6061217500909 314.8716951726897Q884.5509969478106 318.37897328257503 886.0375254182256 319.21514554718345L886.0375254182256 319.21514554718345Q895.7464144906232 324.06959008338225 901.692528372283 327.41427914181594Q907.6154152465925 330.7589682002495 912.7950378856947 335.4275966776465L912.7950378856947 335.4275966776465Z " fill="#111141" transform="matrix(0.9476464506215958,0,0,0.9476464506215958,0,-3.999883129045571)"/></g></svg>